<svg class="svg-icon" style="width: 1em;height: 1em;vertical-align: middle;fill: #ffffff; overflow: hidden; transform: rotate(180deg);" viewBox="0 0 1024 1024" version="1.1" xmlns="http://www.w3.org/2000/svg"><path d="M512 832c-61.76 0-112-57.44-112-128s50.24-128 112-128 112 57.44 112 128-50.24 128-112 128z m0-224c-44.16 0-80 43.04-80 96s35.84 96 80 96 80-43.04 80-96-35.84-96-80-96z"  /><path d="M816 896H208a16 16 0 0 1-16-16 48 48 0 0 0-48-48 16 16 0 0 1-16-16V592a16 16 0 0 1 16-16 48 48 0 0 0 48-48 16 16 0 0 1 16-16h608a16 16 0 0 1 16 16 48 48 0 0 0 48 48 16 16 0 0 1 16 16v224a16 16 0 0 1-16 16 48 48 0 0 0-48 48 16 16 0 0 1-16 16z m-593.6-32h579.2a80 80 0 0 1 62.4-62.4V606.4a80 80 0 0 1-62.4-62.4H222.4a80 80 0 0 1-62.4 62.4v195.2a80 80 0 0 1 62.4 62.4z"  /><path d="M880 960H144a73.12 73.12 0 0 1-21.44-3.04A80 80 0 0 1 64 880V528a80 80 0 0 1 80-80h256a48 48 0 0 0 48-48v-144h-80a16 16 0 0 1-11.84-26.72l144-160a16 16 0 0 1 23.68 0l144 160A16 16 0 0 1 656 256h-80v144a48 48 0 0 0 48 48h256a72.8 72.8 0 0 1 21.28 3.04A80 80 0 0 1 960 528v352a80 80 0 0 1-80 80zM144 480a48 48 0 0 0-48 48v352a48 48 0 0 0 35.2 46.08A44.32 44.32 0 0 0 144 928h736a48 48 0 0 0 48-48V528a48 48 0 0 0-35.2-46.08A46.08 46.08 0 0 0 880 480H624a80 80 0 0 1-80-80V240a16 16 0 0 1 16-16h60L512 103.84 404 224H464a16 16 0 0 1 16 16v160a80 80 0 0 1-80 80z m672 416H208a16 16 0 0 1-16-16 48 48 0 0 0-48-48 16 16 0 0 1-16-16V592a16 16 0 0 1 16-16 48 48 0 0 0 48-48 16 16 0 0 1 16-16h608a16 16 0 0 1 16 16 48 48 0 0 0 48 48 16 16 0 0 1 16 16v224a16 16 0 0 1-16 16 48 48 0 0 0-48 48 16 16 0 0 1-16 16z m-593.6-32h579.2a80 80 0 0 1 62.4-62.4V606.4a80 80 0 0 1-62.4-62.4H222.4a80 80 0 0 1-62.4 62.4v195.2a80 80 0 0 1 62.4 62.4z"  /></svg>
