<svg xmlns="http://www.w3.org/2000/svg" width="365" height="265" viewBox="0 0 350 250.0494945941623">
    <g
    transform="matrix(1.77712082862854,0,0,1.77712082862854,93.13913954898712,-8.123649733055348)" fill="#fff"><polygon points="60.3031502,62.5137749 85.3330688,47.9245911 85.2139664,18.9536228 60.0643883,4.5712423 35.0344353,19.1604233   60.1840477,33.5422134 "></polygon><polygon points="85.3342133,51.8689041 85.3330688,51.8689041 60.3031502,66.4577866 35.1541672,52.0760002 35.2731972,81.0466766   60.4234772,95.4287567 85.4533157,80.8395767 "></polygon><polygon points="56.8537292,35.8179016 31.704155,21.4358158 6.6742005,36.0249977 6.7939329,64.9959641 31.9435081,79.3780518   31.8238506,50.4073792 "></polygon></g><g id="SvgjsG1015" transform="matrix(3.3120646476745605,0,0,3.3120646476745605,-0.6455242996376347,163.79448486048273)" fill="#fff"><path d="M16.484 5.195 l6.3379 0 l0 2.6855 l-1.3379 0 l-3.4082 12.119 l-4.2188 0 l-2.2363 -9.2383 l-2.2852 9.2383 l-4.1797 0 l-3.4668 -12.119 l-1.4941 0 l0 -2.6855 l6.3477 0 l0 2.6855 l-1.543 0 l2.1777 7.9785 l2.627 -10.635 l3.6328 0 l2.5781 10.635 l2.1875 -7.9785 l-1.7188 0 l0 -2.6855 z M31.738278125 17.3242 l1.4746 0 l-0.66406 -2.1289 l-4.5508 0 l-0.66406 2.1289 l1.5625 0 l0 2.6758 l-5.6152 0 l0 -2.6758 l1.1035 0 l4.0332 -12.129 l3.916 0 l3.9453 12.129 l1.0742 0 l0 2.6758 l-5.6152 0 l0 -2.6758 z M28.769578125 12.6953 l2.9883 0 l-1.5039 -4.8145 z M38.681625 5.195 l6.3379 0 l0 2.6855 l-1.5625 0 l0 9.4434 l3.2227 0 q0.126953125 0 0.2490234375 -0.0732421875 t0.21484 -0.19043 t0.15137 -0.25391 t0.058594 -0.26367 l0 -1.9824 l3.1641 0 l0 5.4395 l-11.836 0 l0 -2.6758 l1.5332 0 l0 -9.4434 l-1.5332 0 l0 -2.6855 z M51.82615625 5.195 l6.3379 0 l0 2.6855 l-1.5625 0 l0 9.4434 l3.2227 0 q0.126953125 0 0.2490234375 -0.0732421875 t0.21484 -0.19043 t0.15137 -0.25391 t0.058594 -0.26367 l0 -1.9824 l3.1641 0 l0 5.4395 l-11.836 0 l0 -2.6758 l1.5332 0 l0 -9.4434 l-1.5332 0 l0 -2.6855 z M64.9706875 5.195 l11.777 0 l0 5.0488 l-3.1836 0 l0 -2.0996 l-3.7988 0 l0 2.9199 l2.9395 0 l0 2.832 l-2.9395 0 l0 3.4277 l3.7988 0 l0 -2.627 l3.1836 0 l0 5.3027 l-11.777 0 l0 -2.6758 l1.5527 0 l0 -9.1797 l-1.5527 0 l0 -2.9492 z M80.98635 17.3242 l1.5332 0 l0 -9.541 l-1.7969 0 l0 1.9141 l-3.1836 0 l0 -4.502 l13.467 0 l0 4.502 l-3.2031 0 l0 -1.9141 l-2.041 0 l0 9.541 l1.5625 0 l0 2.6758 l-6.3379 0 l0 -2.6758 z M91.76757375 5.195 l6.3379 0 l0 2.6855 l-1.2402 0 l1.9824 3.3984 l2.0996 -3.3984 l-1.416 0 l0 -2.6855 l6.3379 0 l0 2.6855 l-1.0938 0 l-4.4043 5.9766 l0 3.4668 l1.7969 0 l0 2.6758 l-6.6016 0 l0 -2.6758 l1.6406 0 l0 -3.5059 l-4.1406 -5.9375 l-1.2988 0 l0 -2.6855 z"></path></g><g id="SvgjsG1016"
transform="matrix(0.6753692030906677,0,0,0.6753692030906677,33.81134914689647,236.2989770280513)" fill="#fff"><path d="M4.26 5.84 l4.8 11.1 l0.04 0 l4.84 -11.1 l2.44 0 l0 14.16 l-1.68 0 l0 -11.88 l-0.04 0 l-5.08 11.88 l-1.02 0 l-5.08 -11.88 l-0.04 0 l0 11.88 l-1.68 0 l0 -14.16 l2.5 0 z M37.364000000000004 5.48 q3.2 0 5.28 2.1 t2.12 5.34 q-0.02 3.3 -2.14 5.36 t-5.26 2.08 q-3.2 0 -5.28 -2.11 t-2.12 -5.33 q0 -3.2 2.08 -5.3 t5.32 -2.14 z M31.764000000000003 12.92 q0 2.54 1.6 4.19 t4 1.69 q2.4 0 3.98 -1.68 t1.62 -4.2 q0 -2.46 -1.56 -4.15 t-4.06 -1.73 q-2.44 0.02 -3.99 1.71 t-1.59 4.17 z M60.468 5.84 l8.2 11.76 l0.04 0 l0 -11.76 l1.68 0 l0 14.16 l-2.12 0 l-8.2 -11.76 l-0.04 0 l0 11.76 l-1.68 0 l0 -14.16 l2.12 0 z M93.692 5.84 l0 1.56 l-7.22 0 l0 4.44 l6.74 0 l0 1.56 l-6.74 0 l0 5.04 l7.58 0 l0 1.56 l-9.26 0 l0 -14.16 l8.9 0 z M107.73599999999999 5.84 l3.98 6.4 l4.1 -6.4 l2.02 0 l-5.28 8.06 l0 6.1 l-1.68 0 l0 -6.1 l-5.28 -8.06 l2.14 0 z M156.24399999999997 5.84 l0 1.56 l-4.68 0 l0 12.6 l-1.68 0 l0 -12.6 l-4.68 0 l0 -1.56 l11.04 0 z M172.968 5.84 q2.78 0 4.09 0.92 t1.31 2.96 q0 1.5 -0.89 2.47 t-2.65 1.29 l4.02 6.52 l-2.06 0 l-3.84 -6.36 l-2.16 0 l0 6.36 l-1.68 0 l0 -14.16 l3.86 0 z M172.78799999999998 12.08 q1.98 0 2.88 -0.55 t0.9 -1.79 q0 -1.2 -0.81 -1.77 t-2.51 -0.57 l-2.46 0 l0 4.68 l2 0 z M198.392 5.84 l6.02 14.16 l-1.96 0 l-1.44 -3.48 l-7.08 0 l-1.46 3.48 l-1.9 0 l6.24 -14.16 l1.58 0 z M197.532 8 l-2.94 6.96 l5.78 0 l-2.8 -6.96 l-0.04 0 z M219.296 5.84 l8.2 11.76 l0.04 0 l0 -11.76 l1.68 0 l0 14.16 l-2.12 0 l-8.2 -11.76 l-0.04 0 l0 11.76 l-1.68 0 l0 -14.16 l2.12 0 z M247.76 5.48 q2.58 0 3.96 1.66 l-1.38 1.2 q-0.8 -1.26 -2.58 -1.3 q-1.34 0 -2.18 0.64 t-0.84 1.74 q0 0.96 0.64 1.52 t2.4 1.1 q2.28 0.66 3.23 1.61 t0.95 2.57 q0 1.88 -1.4 3 t-3.58 1.14 q-1.46 0 -2.6 -0.52 t-1.76 -1.44 l1.44 -1.18 q0.46 0.76 1.28 1.17 t1.74 0.41 q1.26 0 2.17 -0.71 t0.91 -1.75 q0 -0.94 -0.53 -1.48 t-1.75 -0.92 l-1.62 -0.54 q-1.82 -0.62 -2.57 -1.55 t-0.75 -2.29 q0 -1.8 1.34 -2.93 t3.48 -1.15 z M271.804 5.84 l6.02 14.16 l-1.96 0 l-1.44 -3.48 l-7.08 0 l-1.46 3.48 l-1.9 0 l6.24 -14.16 l1.58 0 z M270.94399999999996 8 l-2.94 6.96 l5.78 0 l-2.8 -6.96 l-0.04 0 z M296.96799999999996 5.48 q1.66 0 2.94 0.59 t2.06 1.63 l-1.46 1.06 q-0.64 -0.86 -1.58 -1.29 t-1.96 -0.43 q-2.26 0 -3.81 1.72 t-1.59 4.16 q0 2.52 1.54 4.19 t3.86 1.69 q2.54 0 4.1 -1.98 l1.26 1.06 q-1.86 2.48 -5.36 2.48 q-3.1 0 -5.13 -2.14 t-2.07 -5.3 q0 -3.16 2.05 -5.28 t5.15 -2.16 z M325.05199999999996 5.84 l0 1.56 l-4.68 0 l0 12.6 l-1.68 0 l0 -12.6 l-4.68 0 l0 -1.56 l11.04 0 z M339.59599999999995 5.84 l0 14.16 l-1.68 0 l0 -14.16 l1.68 0 z M360.5799999999999 5.48 q3.2 0 5.28 2.1 t2.12 5.34 q-0.02 3.3 -2.14 5.36 t-5.26 2.08 q-3.2 0 -5.28 -2.11 t-2.12 -5.33 q0 -3.2 2.08 -5.3 t5.32 -2.14 z M354.97999999999996 12.92 q0 2.54 1.6 4.19 t4 1.69 q2.4 0 3.98 -1.68 t1.62 -4.2 q0 -2.46 -1.56 -4.15 t-4.06 -1.73 q-2.44 0.02 -3.99 1.71 t-1.59 4.17 z M383.68399999999997 5.84 l8.2 11.76 l0.04 0 l0 -11.76 l1.68 0 l0 14.16 l-2.12 0 l-8.2 -11.76 l-0.04 0 l0 11.76 l-1.68 0 l0 -14.16 l2.12 0 z M412.14799999999997 5.48 q2.58 0 3.96 1.66 l-1.38 1.2 q-0.8 -1.26 -2.58 -1.3 q-1.34 0 -2.18 0.64 t-0.84 1.74 q0 0.96 0.64 1.52 t2.4 1.1 q2.28 0.66 3.23 1.61 t0.95 2.57 q0 1.88 -1.4 3 t-3.58 1.14 q-1.46 0 -2.6 -0.52 t-1.76 -1.44 l1.44 -1.18 q0.46 0.76 1.28 1.17 t1.74 0.41 q1.26 0 2.17 -0.71 t0.91 -1.75 q0 -0.94 -0.53 -1.48 t-1.75 -0.92 l-1.62 -0.54 q-1.82 -0.62 -2.57 -1.55 t-0.75 -2.29 q0 -1.8 1.34 -2.93 t3.48 -1.15 z"></path></g></svg>
